<svg width="671" height="225" viewBox="0 0 671 225" fill="none" xmlns="http://www.w3.org/2000/svg">
<rect width="671" height="225" fill="#E4002C"/>
<path fill-rule="evenodd" clip-rule="evenodd" d="M141.5 51C147.299 51 152 55.701 152 61.5V163.5H145V61.5C145 59.567 143.433 58 141.5 58H61.5C59.567 58 58 59.567 58 61.5V163.5C58 165.433 59.567 167 61.5 167H121V174H61.5C55.701 174 51 169.299 51 163.5V61.5C51 55.701 55.701 51 61.5 51H141.5Z" fill="#FEFEFE"/>
<path d="M75 141.5H128" stroke="#FEFEFE" stroke-width="7"/>
<path d="M75 112.5H128" stroke="#FEFEFE" stroke-width="7"/>
<path d="M75 83.5H128" stroke="#FEFEFE" stroke-width="7"/>
<path d="M136.5 170.5L116.5 185.5V155.5L136.5 170.5Z" fill="#FEFEFE"/>
<path fill-rule="evenodd" clip-rule="evenodd" d="M197.132 119.149V138H187V87H208.397C217.253 87 222 93.3567 222 103.074C222 112.792 217.253 119.149 208.397 119.149H197.132ZM206.845 96.2727H196.872V110.182H206.845C209.533 110.182 211.231 108.864 211.231 105.423V101.031C211.231 97.5904 209.533 96.2727 206.845 96.2727Z" fill="#FEFEFE"/>
<path fill-rule="evenodd" clip-rule="evenodd" d="M255.627 118.711H248.99V138H239V87H260.098C268.83 87 273.511 93.2106 273.511 102.855C273.511 110.308 270.717 115.715 265.477 117.761L274 138H263.172L255.627 118.711ZM248.872 96.2727V110.182H258.845C261.533 110.182 263.231 108.937 263.231 105.423V101.031C263.231 97.5172 261.533 96.2727 258.845 96.2727H248.872Z" fill="#FEFEFE"/>
<path d="M321 138V128.867H300.931V116.738H317.944V107.678H300.931V96.1332H321V87H291V138H321Z" fill="#FEFEFE"/>
<path fill-rule="evenodd" clip-rule="evenodd" d="M354.035 116.665H344.442V138H338V87H356.626C364.748 87 368.95 92.0415 368.95 101.832C368.95 109.943 366.079 114.765 360.477 116.226L370 138H362.858L354.035 116.665ZM344.222 92.5636V110.182H356.097C359.962 110.182 362 108.113 362 103.691V99.0545C362 94.6322 359.962 92.5636 356.097 92.5636H344.222Z" fill="#FEFEFE"/>
<path d="M414 138V132.155H393.289V115.13H412.291V109.285H393.289V92.8453H414V87H387V138H414Z" fill="#FEFEFE"/>
<path d="M452.497 138L467 87H460.35L451.224 119.587L448.96 132.082H448.182L445.847 119.587L436.792 87H430L444.503 138H452.497Z" fill="#FEFEFE"/>
<path d="M504 138V132.52H497.132V92.4799H504V87H483V92.4799H489.868V132.52H483V138H504Z" fill="#FEFEFE"/>
<path d="M548 138V132.155H527.289V115.13H546.291V109.285H527.289V92.8453H548V87H521V138H548Z" fill="#FEFEFE"/>
<path d="M583.195 138L590.347 105.705L592.026 93.3567H592.901L594.58 105.705L601.44 138H609.542L621 87H614.286L607.863 119.076L606.111 131.059H605.309L603.63 119.076L596.843 87H588.303L581.589 119.076L579.837 131.059H579.035L577.283 119.076L570.86 87H564L574.948 138H583.195Z" fill="#FEFEFE"/>
</svg>
