<svg width="535" height="311" viewBox="0 0 535 311" fill="none" xmlns="http://www.w3.org/2000/svg">
<rect width="535" height="311" fill="#181818"/>
<path fill-rule="evenodd" clip-rule="evenodd" d="M309.5 51C315.299 51 320 55.701 320 61.5V163.5H313V61.5C313 59.567 311.433 58 309.5 58H229.5C227.567 58 226 59.567 226 61.5V163.5C226 165.433 227.567 167 229.5 167H289V174H229.5C223.701 174 219 169.299 219 163.5V61.5C219 55.701 223.701 51 229.5 51H309.5Z" fill="#FEFEFE"/>
<path d="M243 141.5H296" stroke="#FEFEFE" stroke-width="7"/>
<path d="M243 112.5H296" stroke="#FEFEFE" stroke-width="7"/>
<path d="M243 83.5H296" stroke="#FEFEFE" stroke-width="7"/>
<path d="M304.5 170.5L284.5 185.5V155.5L304.5 170.5Z" fill="#FEFEFE"/>
<path fill-rule="evenodd" clip-rule="evenodd" d="M61.1316 241.149V260H51V209H72.3968C81.253 209 86 215.357 86 225.074C86 234.792 81.253 241.149 72.3968 241.149H61.1316ZM70.8453 218.273H60.8718V232.182H70.8453C73.5332 232.182 75.2308 230.864 75.2308 227.423V223.031C75.2308 219.59 73.5332 218.273 70.8453 218.273Z" fill="#FEFEFE"/>
<path fill-rule="evenodd" clip-rule="evenodd" d="M119.627 240.711H112.99V260H103V209H124.098C132.83 209 137.511 215.211 137.511 224.855C137.511 232.308 134.717 237.715 129.477 239.761L138 260H127.172L119.627 240.711ZM112.872 218.273V232.182H122.845C125.533 232.182 127.231 230.937 127.231 227.423V223.031C127.231 219.517 125.533 218.273 122.845 218.273H112.872Z" fill="#FEFEFE"/>
<path d="M185 260V250.867H164.931V238.738H181.944V229.678H164.931V218.133H185V209H155V260H185Z" fill="#FEFEFE"/>
<path fill-rule="evenodd" clip-rule="evenodd" d="M218.035 238.665H208.442V260H202V209H220.626C228.748 209 232.95 214.042 232.95 223.832C232.95 231.943 230.079 236.765 224.477 238.226L234 260H226.858L218.035 238.665ZM208.222 214.564V232.182H220.097C223.962 232.182 226 230.113 226 225.691V221.055C226 216.632 223.962 214.564 220.097 214.564H208.222Z" fill="#FEFEFE"/>
<path d="M278 260V254.155H257.289V237.13H276.291V231.285H257.289V214.845H278V209H251V260H278Z" fill="#FEFEFE"/>
<path d="M316.497 260L331 209H324.35L315.224 241.587L312.96 254.082H312.182L309.847 241.587L300.792 209H294L308.503 260H316.497Z" fill="#FEFEFE"/>
<path d="M368 260V254.52H361.132V214.48H368V209H347V214.48H353.868V254.52H347V260H368Z" fill="#FEFEFE"/>
<path d="M412 260V254.155H391.289V237.13H410.291V231.285H391.289V214.845H412V209H385V260H412Z" fill="#FEFEFE"/>
<path d="M447.195 260L454.347 227.705L456.026 215.357H456.901L458.58 227.705L465.44 260H473.542L485 209H478.286L471.863 241.076L470.111 253.059H469.309L467.63 241.076L460.843 209H452.303L445.589 241.076L443.837 253.059H443.035L441.283 241.076L434.86 209H428L438.948 260H447.195Z" fill="#FEFEFE"/>
</svg>
